<?xml version="1.0" encoding="utf-8"?>
<!-- Generator: Adobe Illustrator 25.3.1, SVG Export Plug-In . SVG Version: 6.00 Build 0)  -->
<svg version="1.1" id="Calque_1" xmlns="http://www.w3.org/2000/svg" xmlns:xlink="http://www.w3.org/1999/xlink" x="0px" y="0px"
	 viewBox="0 0 2000 2000" style="background: #253D39;" xml:space="preserve">
<style type="text/css">
	.st0{fill:#EAEDEC;}
</style>
<g>
	<g>
		<g>
			<path class="st0" d="M544.78,1998.18H22.51c-12.43,0-22.51-10.07-22.51-22.51L0.06,684.51C0.11,643.16,0.17,601.82,0,560.47
				c-0.32-76.38,16.13-133.43,50.25-174.41c17.19-20.66,34.94-40.88,52.68-61.1c9.51-10.82,19.01-21.64,28.42-32.53L171,246.58
				V22.51C171,10.07,181.07,0,193.51,0h180.27c12.43,0,22.51,10.07,22.51,22.51v224.07l39.66,45.86
				c9.37,10.87,18.85,21.64,28.32,32.44c17.77,20.24,35.55,40.5,52.76,61.19c34.14,41,50.58,98.05,50.26,174.41
				c-0.16,41.35-0.11,82.69-0.06,124.04l0.06,1291.17C567.29,1988.11,557.22,1998.18,544.78,1998.18z M45.02,1953.17h477.25
				l-0.06-1268.61c-0.06-41.42-0.12-82.86,0.06-124.27c0.26-65.33-12.77-112.91-39.84-145.42c-16.97-20.38-34.5-40.34-52-60.28
				c-9.55-10.89-19.1-21.76-28.55-32.7l-45.13-52.19c-3.54-4.09-5.48-9.33-5.48-14.72V45.02H216.01v209.95
				c0,5.4-1.94,10.63-5.48,14.72l-45.11,52.19c-9.49,10.96-19.07,21.88-28.65,32.79c-17.48,19.91-34.98,39.85-51.92,60.18
				c-27.05,32.51-40.08,80.07-39.83,145.42c0.18,41.42,0.12,82.86,0.06,124.27L45.02,1953.17z"/>
		</g>
	</g>
	<g>
		<g>
			<path class="st0" d="M1975.67,1998.18H1453.4c-12.43,0-22.51-10.07-22.51-22.51l0.06-1291.17c0.05-41.35,0.11-82.69-0.06-124.04
				c-0.32-76.38,16.13-133.43,50.25-174.41c17.19-20.66,34.94-40.88,52.68-61.1c9.51-10.82,19.01-21.64,28.42-32.53l39.64-45.86
				V22.51c0-12.43,10.07-22.51,22.51-22.51h180.27c12.43,0,22.51,10.07,22.51,22.51v224.07l39.66,45.86
				c9.37,10.87,18.85,21.64,28.32,32.44c17.77,20.24,35.55,40.5,52.76,61.19c34.14,41,50.58,98.05,50.26,174.41
				c-0.16,41.35-0.11,82.69-0.06,124.04l0.06,1291.17C1998.18,1988.11,1988.1,1998.18,1975.67,1998.18z M1475.91,1953.17h477.25
				l-0.06-1268.61c-0.06-41.42-0.12-82.86,0.06-124.27c0.26-65.33-12.77-112.91-39.84-145.42c-16.97-20.38-34.5-40.34-52-60.28
				c-9.55-10.89-19.1-21.76-28.55-32.7l-45.13-52.19c-3.54-4.09-5.48-9.33-5.48-14.72V45.02H1646.9v209.95
				c0,5.4-1.94,10.63-5.48,14.72l-45.11,52.19c-9.49,10.96-19.07,21.88-28.65,32.79c-17.48,19.91-34.98,39.85-51.92,60.18
				c-27.05,32.51-40.08,80.07-39.83,145.42c0.18,41.42,0.12,82.86,0.06,124.27L1475.91,1953.17z"/>
		</g>
	</g>
	<g>
		<g>
			<path class="st0" d="M1260.23,1998.18H737.96c-12.43,0-22.51-10.07-22.51-22.51l0.06-1291.17c0.05-41.35,0.11-82.69-0.06-124.04
				c-0.32-76.38,16.13-133.43,50.25-174.41c17.19-20.66,34.94-40.88,52.68-61.1c9.51-10.82,19.01-21.64,28.42-32.53l39.64-45.86
				V22.51C886.44,10.07,896.51,0,908.95,0h180.27c12.43,0,22.51,10.07,22.51,22.51v224.07l39.66,45.86
				c9.37,10.87,18.85,21.64,28.32,32.44c17.77,20.24,35.55,40.5,52.76,61.19c34.14,41,50.58,98.05,50.26,174.41
				c-0.16,41.35-0.11,82.69-0.06,124.04l0.06,1291.17C1282.73,1988.11,1272.66,1998.18,1260.23,1998.18z M760.46,1953.17h477.25
				l-0.06-1268.61c-0.06-41.42-0.12-82.86,0.06-124.27c0.26-65.33-12.77-112.91-39.84-145.42c-16.97-20.38-34.5-40.34-52-60.28
				c-9.55-10.89-19.1-21.76-28.55-32.7l-45.13-52.19c-3.54-4.09-5.48-9.33-5.48-14.72V45.02H931.46v209.95
				c0,5.4-1.94,10.63-5.48,14.72l-45.11,52.19c-9.49,10.96-19.07,21.88-28.64,32.79c-17.49,19.91-34.99,39.85-51.93,60.18
				c-27.05,32.51-40.08,80.07-39.83,145.42c0.18,41.42,0.12,82.86,0.06,124.27L760.46,1953.17z"/>
		</g>
	</g>
</g>
<g>
</g>
<g>
</g>
<g>
</g>
<g>
</g>
<g>
</g>
<g>
</g>
<g>
</g>
<g>
</g>
<g>
</g>
<g>
</g>
<g>
</g>
<g>
</g>
<g>
</g>
<g>
</g>
<g>
</g>
</svg>
