<?xml version="1.0" encoding="utf-8"?>
<!-- Generator: Adobe Illustrator 25.3.1, SVG Export Plug-In . SVG Version: 6.00 Build 0)  -->
<svg version="1.1" id="Calque_1" xmlns="http://www.w3.org/2000/svg" xmlns:xlink="http://www.w3.org/1999/xlink" x="0px" y="0px"
	 viewBox="0 0 2000 2000" style="background: #253D39;" xml:space="preserve">
<style type="text/css">
	.st0{fill:#EAEDEC;}
</style>
<g>
	<path class="st0" d="M275.57,298.58c-5.86,0-11.72-2.24-16.16-6.73L8.61,38.77c-8.85-8.93-8.79-23.34,0.14-32.18
		c8.94-8.84,23.36-8.77,32.18,0.14l250.8,253.08c8.85,8.93,8.79,23.34-0.14,32.18C287.15,296.38,281.36,298.58,275.57,298.58z"/>
	<path class="st0" d="M842.1,298.58c-5.86,0-11.72-2.24-16.16-6.73L575.13,38.77c-8.85-8.93-8.79-23.34,0.14-32.18
		c8.94-8.84,23.36-8.77,32.18,0.14l250.8,253.08c8.85,8.93,8.79,23.34-0.14,32.18C853.67,296.38,847.89,298.58,842.1,298.58z"/>
	<path class="st0" d="M1408.62,298.58c-5.86,0-11.72-2.24-16.16-6.73l-250.8-253.08c-8.85-8.93-8.79-23.34,0.14-32.18
		c8.96-8.84,23.37-8.77,32.18,0.14l250.8,253.08c8.85,8.93,8.79,23.34-0.14,32.18C1420.2,296.38,1414.41,298.58,1408.62,298.58z"/>
	<path class="st0" d="M1975.14,298.58c-5.86,0-11.72-2.24-16.16-6.73l-250.8-253.08c-8.85-8.93-8.79-23.34,0.14-32.18
		c8.96-8.84,23.37-8.77,32.18,0.14l250.8,253.08c8.85,8.93,8.79,23.34-0.14,32.18C1986.72,296.38,1980.93,298.58,1975.14,298.58z"/>
	<path class="st0" d="M275.57,865.73c-5.86,0-11.72-2.24-16.16-6.73L8.61,605.89c-8.85-8.93-8.79-23.34,0.14-32.18
		c8.94-8.84,23.36-8.77,32.18,0.14l250.8,253.11c8.85,8.93,8.79,23.34-0.14,32.18C287.15,863.53,281.36,865.73,275.57,865.73z"/>
	<path class="st0" d="M842.1,865.73c-5.86,0-11.72-2.24-16.16-6.73l-250.8-253.11c-8.85-8.93-8.79-23.34,0.14-32.18
		c8.94-8.84,23.36-8.77,32.18,0.14l250.8,253.11c8.85,8.93,8.79,23.34-0.14,32.18C853.67,863.53,847.89,865.73,842.1,865.73z"/>
	<path class="st0" d="M1408.62,865.73c-5.86,0-11.72-2.24-16.16-6.73l-250.8-253.11c-8.85-8.93-8.79-23.34,0.14-32.18
		c8.96-8.84,23.37-8.77,32.18,0.14l250.8,253.11c8.85,8.93,8.79,23.34-0.14,32.18C1420.2,863.53,1414.41,865.73,1408.62,865.73z"/>
	<path class="st0" d="M1975.14,865.73c-5.86,0-11.72-2.24-16.16-6.73l-250.8-253.11c-8.85-8.93-8.79-23.34,0.14-32.18
		c8.96-8.84,23.37-8.77,32.18,0.14l250.8,253.11c8.85,8.93,8.79,23.34-0.14,32.18C1986.72,863.53,1980.93,865.73,1975.14,865.73z"/>
	<path class="st0" d="M275.57,1432.85c-5.86,0-11.72-2.24-16.16-6.73L8.61,1173.04c-8.85-8.93-8.79-23.34,0.14-32.18
		c8.94-8.81,23.36-8.77,32.18,0.14l250.8,253.08c8.85,8.93,8.79,23.34-0.14,32.18C287.15,1430.66,281.36,1432.85,275.57,1432.85z"/>
	<path class="st0" d="M842.1,1432.85c-5.86,0-11.72-2.24-16.16-6.73l-250.8-253.08c-8.85-8.93-8.79-23.34,0.14-32.18
		c8.94-8.81,23.36-8.77,32.18,0.14l250.8,253.08c8.85,8.93,8.79,23.34-0.14,32.18C853.67,1430.66,847.89,1432.85,842.1,1432.85z"/>
	<path class="st0" d="M1408.62,1432.85c-5.86,0-11.72-2.24-16.16-6.73l-250.8-253.08c-8.85-8.93-8.79-23.34,0.14-32.18
		c8.96-8.81,23.37-8.77,32.18,0.14l250.8,253.08c8.85,8.93,8.79,23.34-0.14,32.18C1420.2,1430.66,1414.41,1432.85,1408.62,1432.85z"
		/>
	<path class="st0" d="M1975.14,1432.85c-5.86,0-11.72-2.24-16.16-6.73l-250.8-253.08c-8.85-8.93-8.79-23.34,0.14-32.18
		c8.96-8.81,23.37-8.77,32.18,0.14l250.8,253.08c8.85,8.93,8.79,23.34-0.14,32.18C1986.72,1430.66,1980.93,1432.85,1975.14,1432.85z
		"/>
	<path class="st0" d="M275.57,2000c-5.86,0-11.72-2.24-16.16-6.73L8.61,1740.16c-8.85-8.93-8.79-23.34,0.14-32.18
		c8.94-8.81,23.36-8.77,32.18,0.14l250.8,253.11c8.85,8.93,8.79,23.34-0.14,32.18C287.15,1997.8,281.36,2000,275.57,2000z"/>
	<path class="st0" d="M842.1,2000c-5.86,0-11.72-2.24-16.16-6.73l-250.8-253.11c-8.85-8.93-8.79-23.34,0.14-32.18
		c8.94-8.81,23.36-8.77,32.18,0.14l250.8,253.11c8.85,8.93,8.79,23.34-0.14,32.18C853.67,1997.8,847.89,2000,842.1,2000z"/>
	<path class="st0" d="M1408.62,2000c-5.86,0-11.72-2.24-16.16-6.73l-250.8-253.11c-8.85-8.93-8.79-23.34,0.14-32.18
		c8.96-8.81,23.37-8.77,32.18,0.14l250.8,253.11c8.85,8.93,8.79,23.34-0.14,32.18C1420.2,1997.8,1414.41,2000,1408.62,2000z"/>
	<path class="st0" d="M1975.14,2000c-5.86,0-11.72-2.24-16.16-6.73l-250.8-253.11c-8.85-8.93-8.79-23.34,0.14-32.18
		c8.96-8.81,23.37-8.77,32.18,0.14l250.8,253.11c8.85,8.93,8.79,23.34-0.14,32.18C1986.72,1997.8,1980.93,2000,1975.14,2000z"/>
</g>
<g>
</g>
<g>
</g>
<g>
</g>
<g>
</g>
<g>
</g>
<g>
</g>
<g>
</g>
<g>
</g>
<g>
</g>
<g>
</g>
<g>
</g>
<g>
</g>
<g>
</g>
<g>
</g>
<g>
</g>
</svg>
