<?xml version="1.0" encoding="utf-8"?>
<!-- Generator: Adobe Illustrator 19.0.0, SVG Export Plug-In . SVG Version: 6.00 Build 0)  -->
<svg version="1.1" id="Calque_1" xmlns="http://www.w3.org/2000/svg" xmlns:xlink="http://www.w3.org/1999/xlink" x="0px" y="0px"
	 viewBox="0 0 1956.5 1359" style="enable-background:new 0 0 1956.5 1359;" xml:space="preserve">
<style type="text/css">
	.st0{fill:none;}
	.st1{fill:#232323;}
</style>
<g id="XMLID_723_">
	<rect id="XMLID_70_" x="-16.2" y="1153.6" class="st0" width="1998.6" height="223.3"/>
	<path id="XMLID_41_" d="M121.3,1354.1H-0.8v-192.8h41.1v158.6h81V1354.1z"/>
	<path id="XMLID_43_" d="M192.7,1193.7l-22.6,29.6h-10.5l9.5-29.6c-6.9-3.6-11.6-11.1-11.6-19.5c0-11.8,9.8-21.6,21.6-21.6
		c12.3,0,22.1,9.8,22.1,21.6C201.2,1179,200.2,1183.7,192.7,1193.7z"/>
	<path id="XMLID_45_" d="M237,1354.1v-192.8h41.1v192.8H237z"/>
	<path id="XMLID_47_" d="M444.7,1354.1l-86.9-127.2v127.2h-41.1v-192.8h42.4l87.1,127.2v-127.2h41.1v192.8H444.7z"/>
	<path id="XMLID_49_" d="M621.3,1355.4c-54.2,0-100.5-42.9-100.5-97.7S567,1160,621.3,1160c30.6,0,61.2,14.9,76.6,42.4l-27.8,20
		c-10-15.2-26-28.3-49.4-28.3c-34.4,0-58.9,27.5-58.9,63.5s24.4,63.5,58.9,63.5c23.4,0,39.1-12.9,49.4-28l27.8,20
		C682.4,1340.5,651.8,1355.4,621.3,1355.4z"/>
	<path id="XMLID_51_" d="M849.8,1317.8h-76.6l-14.4,36.2h-40.4l76.6-192.8h32.9l76.6,192.8h-40.4L849.8,1317.8z M835.9,1283.6
		l-24.4-61.2l-24.4,61.2H835.9z"/>
	<path id="XMLID_54_" d="M1073.2,1300.9c0,37.8-32.9,55.5-69.1,55.5c-31.4,0-60.9-11.6-81.5-33.7l27-26.7
		c10.8,10.5,30.1,26.2,51.9,26.2c16.5,0,30.6-6.4,30.6-21.3c0-17-20-21.8-45.5-33.2c-21.1-9.3-54.2-23.9-54.2-55.3
		c0-35,32.9-53.2,66.6-53.2c31.6,0,58.9,12.6,76.1,30.3l-24.7,26c-9-8.5-29.8-22.1-51.7-22.1c-6.7,0-25.2,2.1-25.2,18.3
		c0,11.6,9.8,19,35.5,28.5C1045.9,1253.8,1073.2,1269,1073.2,1300.9z"/>
	<path id="XMLID_57_" d="M1251.3,1300.9c0,37.8-32.9,55.5-69.1,55.5c-31.4,0-60.9-11.6-81.5-33.7l27-26.7
		c10.8,10.5,30.1,26.2,51.9,26.2c16.5,0,30.6-6.4,30.6-21.3c0-17-20-21.8-45.5-33.2c-21.1-9.3-54.2-23.9-54.2-55.3
		c0-35,32.9-53.2,66.6-53.2c31.6,0,58.9,12.6,76.1,30.3l-24.7,26c-9-8.5-29.8-22.1-51.7-22.1c-6.7,0-25.2,2.1-25.2,18.3
		c0,11.6,9.8,19,35.5,28.5C1224,1253.8,1251.3,1269,1251.3,1300.9z"/>
	<path id="XMLID_59_" d="M1405,1317.8h-76.6l-14.4,36.2h-40.4l76.6-192.8h32.9l76.6,192.8h-40.4L1405,1317.8z M1391.1,1283.6
		l-24.4-61.2l-24.4,61.2H1391.1z"/>
	<path id="XMLID_62_" d="M1625.3,1297.8c0,28.8-19.5,56.3-61.2,56.3h-78.7v-192.8h76.1c28.5,0,51.2,20.8,51.2,46.8
		c0,17-9.5,31.1-22.1,37.8C1617.1,1257.2,1625.3,1274.1,1625.3,1297.8z M1557.2,1231.2c10-1.3,14.4-9.3,14.4-18
		c0-9.5-4.4-17.7-15.2-17.7h-29.8v35.7H1557.2z M1584.2,1292.6c0-14.7-8.7-26.7-24.4-27.2h-33.2v54.5h32.4
		C1575.2,1319.9,1584.2,1307.6,1584.2,1292.6z"/>
	<path id="XMLID_66_" d="M1780.8,1354.1h-122.1v-192.8h41.1v158.6h81V1354.1z"/>
	<path id="XMLID_68_" d="M1953.6,1354.1h-139.3v-192.8h134.7v34.2h-93.6v41.9h76.6v34.4h-76.6v48.1h98.2V1354.1z"/>
</g>
<g id="XMLID_3_">
	<g id="XMLID_12_">
		<path id="XMLID_802_" class="st1" d="M954.6,882.4c-37.4,0-72.6-14.6-99.2-41.3c-26.6-26.6-41.3-61.8-41.3-99.2V365.9
			c0-37.4,14.6-72.6,41.3-99.2c26.6-26.6,61.8-41.3,99.2-41.3c37.4,0,72.6,14.6,99.2,41.3c26.6,26.6,41.3,61.8,41.3,99.2V742
			c0,37.4-14.6,72.6-41.3,99.2C1027.2,867.8,992,882.4,954.6,882.4z M954.6,231c-35.9,0-69.7,14.1-95.3,39.6
			c-25.6,25.6-39.6,59.4-39.6,95.3V742c0,35.9,14.1,69.7,39.6,95.3c25.6,25.6,59.4,39.6,95.3,39.6c35.9,0,69.7-14.1,95.3-39.6
			c25.6-25.6,39.6-59.4,39.6-95.3V365.9c0-35.9-14.1-69.7-39.6-95.3C1024.3,245,990.5,231,954.6,231z"/>
		<path id="XMLID_801_" class="st1" d="M994.2,299.8H915c-12.2,0-22.1-10-22.1-22.1V22.1C892.9,10,902.8,0,915,0l79.2,0
			c12.2,0,22.1,10,22.1,22.1v255.5C1016.3,289.8,1006.3,299.8,994.2,299.8z"/>
		<path id="XMLID_798_" class="st1" d="M1053,1032.7H856.2c-23.2,0-42-18.8-42-42V532.2c0-23.2,18.8-42,42-42H1053
			c23.2,0,42,18.8,42,42v458.5C1095,1013.8,1076.2,1032.7,1053,1032.7z M856.2,495.7c-20.1,0-36.5,16.4-36.5,36.5v458.5
			c0,20.1,16.4,36.5,36.5,36.5H1053c20.1,0,36.5-16.4,36.5-36.5V532.2c0-20.1-16.4-36.5-36.5-36.5H856.2z"/>
	</g>
	<g id="XMLID_1046_">
		<path id="XMLID_1017_" class="st1" d="M1405.1,1032.7h-193c-22.2,0-40.3-18.1-40.3-40.3V632.3c0-22.2,18.1-40.3,40.3-40.3h193
			c22.2,0,40.3,18.1,40.3,40.3v360.1C1445.4,1014.6,1427.3,1032.7,1405.1,1032.7z M1212.1,597.8c-19,0-34.5,15.5-34.5,34.5v360.1
			c0,19,15.5,34.5,34.5,34.5h193c19,0,34.5-15.5,34.5-34.5V632.3c0-19-15.5-34.5-34.5-34.5H1212.1z"/>
		<path id="XMLID_1014_" class="st1" d="M1308.6,984.8c-75.4,0-136.8-71.9-136.8-160.3s61.4-160.3,136.8-160.3
			c75.4,0,136.8,71.9,136.8,160.3S1384,984.8,1308.6,984.8z M1308.6,670.1c-72.2,0-131,69.3-131,154.5s58.8,154.5,131,154.5
			s131-69.3,131-154.5S1380.9,670.1,1308.6,670.1z"/>
	</g>
	<path id="XMLID_1_" class="st1" d="M628,504c-27.8,0-50.4-22.4-50.4-49.9s22.6-49.9,50.4-49.9s50.4,22.4,50.4,49.9
		S655.8,504,628,504z M628,410.1c-24.5,0-44.5,19.7-44.5,44c0,24.3,19.9,44,44.5,44s44.5-19.7,44.5-44
		C672.4,429.8,652.5,410.1,628,410.1z"/>
	<path id="XMLID_5_" class="st1" d="M687.2,263.2H568.8c-3.6,0-6.5-2.9-6.5-6.5v-23.2c0-3.6,2.9-6.5,6.5-6.5h118.5
		c3.6,0,6.5,2.9,6.5,6.5v23.2C693.7,260.2,690.8,263.2,687.2,263.2z"/>
	<path id="XMLID_6_" d="M711.5,1031.8H550.3c-21.5,0-40.3-17.4-40.3-38.2V557.2l43.7-201.4h152.9l39.1,186.4
		c2.1,4.8,2.3,9.8,2.3,15.5v435.8C748,1015.5,732.2,1031.8,711.5,1031.8z M516,557.7v435.8c0,18.2,15.6,33.2,34.3,33.2h161.1
		c17.9,0,32.5-14.1,32.5-33.2V557.7c0-5.3-0.6-9.4-2.5-13.4l-0.3-0.3l-38.7-182.2H557.8L516,557.7z"/>
	<path id="XMLID_7_" d="M707.7,361.8h-155l18.4-106h113.7L707.7,361.8z M558.7,355.8h142.6l-20.7-93H575.4L558.7,355.8z"/>
	<path id="XMLID_14_" class="st1" d="M1447.7,606.7h-278.5c-3.6,0-6.5-2.9-6.5-6.5V577c0-3.6,2.9-6.5,6.5-6.5h278.5
		c3.6,0,6.5,2.9,6.5,6.5v23.2C1454.1,603.7,1451.2,606.7,1447.7,606.7z"/>
</g>
<g id="XMLID_40_">
</g>
<g id="XMLID_55_">
</g>
<g id="XMLID_71_">
</g>
<g id="XMLID_72_">
</g>
<g id="XMLID_73_">
</g>
<g id="XMLID_74_">
</g>
<g id="XMLID_75_">
</g>
<g id="XMLID_76_">
</g>
<g id="XMLID_77_">
</g>
<g id="XMLID_78_">
</g>
<g id="XMLID_79_">
</g>
<g id="XMLID_80_">
</g>
<g id="XMLID_81_">
</g>
<g id="XMLID_82_">
</g>
<g id="XMLID_83_">
</g>
</svg>
