<?xml version="1.0" encoding="utf-8"?>
<!-- Generator: Adobe Illustrator 19.0.0, SVG Export Plug-In . SVG Version: 6.00 Build 0)  -->
<svg version="1.1" id="Calque_1" xmlns="http://www.w3.org/2000/svg" xmlns:xlink="http://www.w3.org/1999/xlink" x="0px" y="0px"
	 viewBox="0 0 1966.5 1401.2" style="enable-background:new 0 0 1966.5 1401.2;" xml:space="preserve">
<style type="text/css">
	.st0{fill:none;}
	.st1{fill:#232323;}
	.st2{fill:#202020;}
</style>
<g id="XMLID_723_">
	<rect id="XMLID_30_" x="-11" y="1199.3" class="st0" width="1977.5" height="223.2"/>
	<path id="XMLID_2_" d="M126.5,1399.7H4.4V1207h41.1v158.5h80.9V1399.7z"/>
	<path id="XMLID_4_" d="M197.9,1239.3l-22.6,29.5h-10.5l9.5-29.5c-6.9-3.6-11.6-11-11.6-19.5c0-11.8,9.8-21.6,21.6-21.6
		c12.3,0,22.1,9.8,22.1,21.6C206.4,1224.7,205.3,1229.3,197.9,1239.3z"/>
	<path id="XMLID_6_" d="M242.1,1399.7V1207h41.1v192.7H242.1z"/>
	<path id="XMLID_8_" d="M449.7,1399.7l-86.8-127.2v127.2h-41.1V1207h42.4l87.1,127.2V1207h41.1v192.7H449.7z"/>
	<path id="XMLID_10_" d="M626.2,1400.9c-54.2,0-100.5-42.9-100.5-97.6s46.2-97.6,100.5-97.6c30.6,0,61.1,14.9,76.6,42.4l-27.7,20
		c-10-15.2-25.9-28.3-49.3-28.3c-34.4,0-58.8,27.5-58.8,63.5s24.4,63.5,58.8,63.5c23.4,0,39.1-12.8,49.3-28l27.7,20
		C687.3,1386,656.7,1400.9,626.2,1400.9z"/>
	<path id="XMLID_12_" d="M854.6,1363.4H778l-14.4,36.2h-40.3l76.6-192.7h32.9l76.6,192.7H869L854.6,1363.4z M840.7,1329.3
		l-24.4-61.1l-24.4,61.1H840.7z"/>
	<path id="XMLID_15_" d="M1077.8,1346.5c0,37.8-32.9,55.5-69.1,55.5c-31.3,0-60.9-11.6-81.4-33.7l27-26.7
		c10.8,10.5,30.1,26.2,51.9,26.2c16.4,0,30.6-6.4,30.6-21.3c0-17-20-21.8-45.5-33.1c-21.1-9.2-54.2-23.9-54.2-55.2
		c0-34.9,32.9-53.2,66.5-53.2c31.6,0,58.8,12.6,76,30.3l-24.7,25.9c-9-8.5-29.8-22.1-51.6-22.1c-6.7,0-25.2,2.1-25.2,18.2
		c0,11.6,9.8,19,35.5,28.5C1050.6,1299.5,1077.8,1314.6,1077.8,1346.5z"/>
	<path id="XMLID_17_" d="M1255.9,1346.5c0,37.8-32.9,55.5-69.1,55.5c-31.3,0-60.9-11.6-81.4-33.7l27-26.7
		c10.8,10.5,30.1,26.2,51.9,26.2c16.4,0,30.6-6.4,30.6-21.3c0-17-20-21.8-45.5-33.1c-21.1-9.2-54.2-23.9-54.2-55.2
		c0-34.9,32.9-53.2,66.5-53.2c31.6,0,58.8,12.6,76,30.3l-24.7,25.9c-9-8.5-29.8-22.1-51.6-22.1c-6.7,0-25.2,2.1-25.2,18.2
		c0,11.6,9.8,19,35.5,28.5C1228.7,1299.5,1255.9,1314.6,1255.9,1346.5z"/>
	<path id="XMLID_19_" d="M1409.5,1363.4H1333l-14.4,36.2h-40.3l76.6-192.7h32.9l76.6,192.7h-40.3L1409.5,1363.4z M1395.7,1329.3
		l-24.4-61.1l-24.4,61.1H1395.7z"/>
	<path id="XMLID_22_" d="M1629.7,1343.4c0,28.8-19.5,56.3-61.1,56.3H1490V1207h76c28.5,0,51.1,20.8,51.1,46.8
		c0,17-9.5,31.1-22.1,37.8C1621.5,1302.8,1629.7,1319.8,1629.7,1343.4z M1561.6,1276.8c10-1.3,14.4-9.2,14.4-18
		c0-9.5-4.4-17.7-15.2-17.7h-29.8v35.7H1561.6z M1588.6,1338.2c0-14.6-8.7-26.7-24.4-27.2h-33.1v54.5h32.4
		C1579.6,1365.5,1588.6,1353.2,1588.6,1338.2z"/>
	<path id="XMLID_26_" d="M1785.2,1399.7h-122V1207h41.1v158.5h80.9V1399.7z"/>
	<path id="XMLID_28_" d="M1957.8,1399.7h-139.3V1207h134.6v34.2h-93.5v41.9h76.6v34.4h-76.6v48h98.1V1399.7z"/>
</g>
<g id="XMLID_1047_">
	<g id="XMLID_797_">
		<path id="XMLID_802_" class="st1" d="M971.8,915.8c-37.3,0-72.5-14.6-99.1-41.2c-26.6-26.6-41.2-61.8-41.2-99.1V399.5
			c0-37.3,14.6-72.5,41.2-99.1c26.6-26.6,61.8-41.2,99.1-41.2c37.3,0,72.5,14.6,99.1,41.2c26.6,26.6,41.2,61.8,41.2,99.1v375.9
			c0,37.3-14.6,72.5-41.2,99.1C1044.3,901.1,1009.1,915.8,971.8,915.8z M971.8,264.7c-35.9,0-69.7,14.1-95.2,39.6
			c-25.5,25.5-39.6,59.4-39.6,95.2v375.9c0,35.9,14.1,69.7,39.6,95.2c25.5,25.5,59.4,39.6,95.2,39.6c35.9,0,69.7-14.1,95.2-39.6
			c25.5-25.5,39.6-59.4,39.6-95.2V399.5c0-35.9-14.1-69.7-39.6-95.2C1041.4,278.7,1007.6,264.7,971.8,264.7z"/>
		<path id="XMLID_801_" class="st1" d="M1027.9,299.6H915.6c-3,0-5.5-2.5-5.5-5.5V5.5c0-3,2.5-5.5,5.5-5.5l112.3,0
			c3,0,5.5,2.5,5.5,5.5v288.6C1033.4,297.1,1031,299.6,1027.9,299.6z"/>
		<path id="XMLID_798_" class="st1" d="M1070.1,1066H873.4c-23.2,0-42-18.8-42-42V565.7c0-23.2,18.8-42,42-42h196.8
			c23.2,0,42,18.8,42,42V1024C1112.1,1047.1,1093.3,1066,1070.1,1066z M873.4,529.3c-20.1,0-36.5,16.4-36.5,36.5V1024
			c0,20.1,16.4,36.5,36.5,36.5h196.8c20.1,0,36.5-16.4,36.5-36.5V565.7c0-20.1-16.4-36.5-36.5-36.5H873.4z"/>
	</g>
	<g id="XMLID_777_">
		<path id="XMLID_785_" class="st1" d="M703.1,393.4h-148l22.8-144h104.8L703.1,393.4z M562.1,387.5h134.2l-18.6-132.1H583
			L562.1,387.5z"/>
		<path id="XMLID_782_" class="st1" d="M751.1,1066H521.8c-8.2,0-15.8-6.5-15.8-14.7V599.2c0-0.3,0.8-2.2,0.8-2.2h-0.6l50.1-209
			h145.6L767,597h-1.4c0,0-1.3,0.9-1.3,1.1l-1.3,1.1v452.2C763,1059.7,759.1,1066,751.1,1066z M513.7,592h1.1l-2.3,4.3
			c-0.4,1-1.6,2.1-1.6,2.9v452.2c0,4.9,6,6.7,10.8,6.7h229.3c4.7,0,6.9-1.6,6.9-6.7V599.2l0.8-0.6c0-1,0.4-1.9,0.2-2.5l-1-4.1h0.9
			l-61.4-199H561L513.7,592z"/>
		<path id="XMLID_781_" class="st1" d="M688.4,284.5H570c-3.6,0-6.5-2.9-6.5-6.5v-23.1c0-3.6,2.9-6.5,6.5-6.5h118.4
			c3.6,0,6.5,2.9,6.5,6.5v23.1C694.8,281.6,691.9,284.5,688.4,284.5z"/>
		<path id="XMLID_778_" class="st1" d="M632.3,540.9c-27.8,0-50.4-22.4-50.4-49.9s22.6-49.9,50.4-49.9s50.4,22.4,50.4,49.9
			S660.1,540.9,632.3,540.9z M632.3,447c-24.5,0-44.4,19.7-44.4,44c0,24.2,19.9,44,44.4,44s44.4-19.7,44.4-44
			C676.8,466.8,656.8,447,632.3,447z"/>
	</g>
	<g id="XMLID_1046_">
		<path id="XMLID_1017_" class="st1" d="M1420.9,1066H1228c-22.2,0-40.3-18.1-40.3-40.3v-360c0-22.2,18.1-40.3,40.3-40.3h192.9
			c22.2,0,40.3,18.1,40.3,40.3v360C1461.2,1047.9,1443.1,1066,1420.9,1066z M1228,631.3c-19,0-34.5,15.5-34.5,34.5v360
			c0,19,15.5,34.5,34.5,34.5h192.9c19,0,34.5-15.5,34.5-34.5v-360c0-19-15.5-34.5-34.5-34.5H1228z"/>
		<path id="XMLID_1014_" class="st1" d="M1324.4,1018.1c-75.4,0-136.7-71.9-136.7-160.2s61.3-160.2,136.7-160.2
			c75.4,0,136.7,71.9,136.7,160.2S1399.8,1018.1,1324.4,1018.1z M1324.4,703.5c-72.2,0-130.9,69.3-130.9,154.4
			s58.7,154.4,130.9,154.4c72.2,0,130.9-69.3,130.9-154.4S1396.6,703.5,1324.4,703.5z"/>
		<g id="XMLID_1009_">
			<path id="XMLID_1013_" class="st1" d="M1465.9,652.7h-283.4c-1.7,0-3-1.4-3-3v-20.8c0-1.7,1.4-3,3-3h283.4c1.7,0,3,1.4,3,3v20.8
				C1468.9,651.4,1467.5,652.7,1465.9,652.7z"/>
			<path id="XMLID_1010_" class="st2" d="M1466,655.6h-283.6c-3.2,0-5.8-2.6-5.8-5.8v-21.1c0-3.2,2.6-5.8,5.8-5.8H1466
				c3.2,0,5.8,2.6,5.8,5.8v21.1C1471.8,653,1469.2,655.6,1466,655.6z M1182.4,628.8l0,21.1l283.6,0l0-21.1L1182.4,628.8z"/>
		</g>
	</g>
</g>
<g id="XMLID_1_">
</g>
<g id="XMLID_31_">
</g>
<g id="XMLID_32_">
</g>
<g id="XMLID_33_">
</g>
<g id="XMLID_34_">
</g>
<g id="XMLID_35_">
</g>
<g id="XMLID_36_">
</g>
<g id="XMLID_37_">
</g>
<g id="XMLID_38_">
</g>
<g id="XMLID_39_">
</g>
<g id="XMLID_40_">
</g>
<g id="XMLID_41_">
</g>
<g id="XMLID_42_">
</g>
<g id="XMLID_43_">
</g>
<g id="XMLID_44_">
</g>
</svg>
