<?xml version="1.0" encoding="utf-8"?>
<!-- Generator: Adobe Illustrator 25.3.1, SVG Export Plug-In . SVG Version: 6.00 Build 0)  -->
<svg version="1.1" id="Calque_1" xmlns="http://www.w3.org/2000/svg" xmlns:xlink="http://www.w3.org/1999/xlink" x="0px" y="0px"
	 viewBox="0 0 1972.22 213.48" style="enable-background:new 0 0 1972.22 213.48;" xml:space="preserve">
<style type="text/css">
	.st0{fill:#D4DAD6;}
</style>
<g>
	<g>
		<g>
			<path class="st0" d="M0,1h35.91v174.47h80.5v35.01H0V1z"/>
			<path class="st0" d="M242.09,34.52V1h117.61v33.52h-40.4v142.45h40.4v33.52H242.09v-33.52h40.7V34.52H242.09z"/>
			<path class="st0" d="M506.65,1h34.41v209.48h-36.81l-38.91-99.65l-11.67-36.21h-1.2l2.09,36.81v99.06h-34.41V1h36.81l38.6,99.36
				l11.97,36.51h1.2l-2.09-37.11V1z"/>
			<path class="st0" d="M723.62,145.25v8.98c0,16.46-5.99,30.23-17.96,41.9c-11.97,11.67-26.33,17.36-43.39,17.36
				s-31.42-5.69-43.39-17.36c-11.97-11.67-17.96-25.44-17.96-41.6V56.67c0-15.86,5.99-29.63,17.96-41.3
				C631.15,3.7,645.52-1.99,661.97-1.99c44.59,0,60.15,35.31,60.15,61.05h-35.91c0-14.37-8.68-26.93-23.94-26.93
				c-14.36,0-24.54,10.47-24.54,23.64v99.65c0,14.66,10.47,23.94,24.54,23.94c13.47,0,26.04-9.28,26.04-25.14v-8.98H723.62z"/>
			<path class="st0" d="M811.32,1h56.86l34.12,117.91v91.57h-35.31v-62.25h-54.47v62.25H777.2v-91.57L811.32,1z M863.69,113.23
				l-20.95-77.21h-5.99l-20.95,77.21H863.69z"/>
			<path class="st0" d="M996.87,53.67c0,12.27,13.17,22.44,29.63,31.12c23.64,11.37,55.07,30.23,54.47,70.03
				c0,15.86-5.99,29.63-17.96,41.3c-11.97,11.67-26.33,17.36-43.39,17.36c-17.65,0-32.32-5.69-43.99-17.06
				c-11.67-11.67-17.36-25.74-17.36-42.2v-8.98h35.32v8.98c0,15.86,12.27,25.14,25.13,25.14c15.56,0,25.14-10.47,25.14-22.44
				c0-15.56-12.86-26.93-29.33-35.31c-23.64-11.67-54.47-27.23-53.86-65.24c0-16.46,5.69-30.52,17.06-41.6
				c11.67-11.07,25.44-16.76,41.89-16.76c18.25,0,32.62,6.29,42.8,18.55c10.17,12.27,15.26,26.63,15.26,42.79h-35.91
				c0-15.86-8.68-27.23-22.15-27.23C1007.34,32.13,996.87,42,996.87,53.67z"/>
			<path class="st0" d="M1176.44,53.67c0,12.27,13.17,22.44,29.62,31.12c23.64,11.37,55.07,30.23,54.47,70.03
				c0,15.86-5.99,29.63-17.96,41.3c-11.97,11.67-26.33,17.36-43.39,17.36c-17.65,0-32.32-5.69-43.99-17.06
				c-11.67-11.67-17.36-25.74-17.36-42.2v-8.98h35.31v8.98c0,15.86,12.27,25.14,25.13,25.14c15.56,0,25.14-10.47,25.14-22.44
				c0-15.56-12.86-26.93-29.33-35.31c-23.64-11.67-54.47-27.23-53.86-65.24c0-16.46,5.69-30.52,17.06-41.6
				c11.67-11.07,25.44-16.76,41.89-16.76c18.25,0,32.62,6.29,42.8,18.55c10.17,12.27,15.26,26.63,15.26,42.79h-35.91
				c0-15.86-8.68-27.23-22.15-27.23C1186.91,32.13,1176.44,42,1176.44,53.67z"/>
			<path class="st0" d="M1350.02,1h56.86l34.12,117.91v91.57h-35.31v-62.25h-54.47v62.25h-35.31v-91.57L1350.02,1z M1402.39,113.23
				l-20.95-77.21h-5.99l-20.95,77.21H1402.39z"/>
			<path class="st0" d="M1499.37,1h63.15c14.66,0,26.93,4.79,36.81,14.37c9.88,9.28,14.96,20.95,14.96,34.71v17.36
				c0,11.97-5.69,23.94-10.17,28.73l-3.59,3.89c1.2,0.9,2.69,2.09,4.19,3.89c1.8,1.5,4.19,5.39,6.88,11.67
				c2.99,6.28,4.49,12.87,4.49,20.05v22.44c0,15.26-5.39,27.83-16.16,37.71c-10.77,9.87-23.64,14.66-38.31,14.66h-62.25V1z
				 M1535.58,36.02V83.3h27.23c8.68,0,15.86-6.58,15.86-14.66V50.68c0-8.08-7.19-14.66-15.86-14.66H1535.58z M1535.58,118.31v57.16
				h26.04c9.87,0,17.95-7.78,17.95-17.36v-22.15c0-7.48-6.88-17.66-17.95-17.66H1535.58z"/>
			<path class="st0" d="M1683.72,1h35.91v174.47h80.5v35.01h-116.41V1z"/>
			<path class="st0" d="M1863.29,1h106.84v35.01h-71.23V83.9h64.94v34.71h-64.94v56.86h73.32v35.01h-108.93V1z"/>
		</g>
	</g>
	
		<rect x="116.19" y="24.89" transform="matrix(0.695 -0.719 0.719 0.695 17.765 126.7268)" class="st0" width="84.12" height="35.06"/>
</g>
<g>
</g>
<g>
</g>
<g>
</g>
<g>
</g>
<g>
</g>
<g>
</g>
<g>
</g>
<g>
</g>
<g>
</g>
<g>
</g>
<g>
</g>
<g>
</g>
<g>
</g>
<g>
</g>
<g>
</g>
</svg>
