<?xml version="1.0" encoding="utf-8"?>
<!-- Generator: Adobe Illustrator 25.3.1, SVG Export Plug-In . SVG Version: 6.00 Build 0)  -->
<svg version="1.1" id="Calque_1" xmlns="http://www.w3.org/2000/svg" xmlns:xlink="http://www.w3.org/1999/xlink" x="0px" y="0px"
	 viewBox="0 0 2000 978.84" style="enable-background:new 0 0 2000 978.84;" xml:space="preserve">
<style type="text/css">
	.st0{fill:#EAEDEC;}
</style>
<g>
	<g>
		<g>
			<g>
				<path class="st0" d="M0.99,3.03h36.34v176.58h81.48v35.44H0.99V3.03z"/>
				<path class="st0" d="M246.01,36.95V3.03h119.03v33.92h-40.89v144.17h40.89v33.92H246.01v-33.92h41.19V36.95H246.01z"/>
				<path class="st0" d="M513.77,3.03h34.83v212.02h-37.25l-39.38-100.86l-11.81-36.65h-1.21l2.12,37.25v100.26h-34.83V3.03h37.26
					l39.07,100.56l12.12,36.95h1.21l-2.12-37.56V3.03z"/>
				<path class="st0" d="M733.38,149.02v9.08c0,16.66-6.06,30.59-18.17,42.41c-12.12,11.81-26.65,17.57-43.92,17.57
					c-17.26,0-31.8-5.75-43.92-17.57c-12.12-11.81-18.17-25.75-18.17-42.1V59.37c0-16.05,6.06-29.99,18.17-41.8
					C639.78,5.76,654.33,0,670.98,0c45.13,0,60.88,35.74,60.88,61.79h-36.35c0-14.54-8.79-27.26-24.23-27.26
					c-14.54,0-24.84,10.6-24.84,23.93v100.86c0,14.84,10.6,24.23,24.84,24.23c13.63,0,26.35-9.39,26.35-25.44v-9.08H733.38z"/>
				<path class="st0" d="M822.14,3.03h57.55l34.53,119.34v92.68h-35.74v-63h-55.12v63h-35.74v-92.68L822.14,3.03z M875.14,116.61
					l-21.2-78.14h-6.06l-21.2,78.14H875.14z"/>
				<path class="st0" d="M1009.94,56.34c0,12.42,13.33,22.72,29.98,31.5c23.93,11.51,55.73,30.59,55.12,70.88
					c0,16.05-6.06,29.98-18.17,41.8c-12.11,11.81-26.65,17.57-43.92,17.57c-17.87,0-32.71-5.75-44.52-17.26
					c-11.81-11.81-17.57-26.05-17.57-42.71v-9.08h35.74v9.08c0,16.05,12.42,25.44,25.44,25.44c15.75,0,25.44-10.6,25.44-22.72
					c0-15.75-13.02-27.26-29.68-35.74c-23.93-11.81-55.13-27.56-54.52-66.03c0-16.66,5.76-30.89,17.26-42.1
					C1002.36,5.76,1016.3,0,1032.95,0c18.48,0,33.02,6.36,43.31,18.78c10.3,12.42,15.45,26.96,15.45,43.31h-36.35
					c0-16.05-8.78-27.56-22.41-27.56C1020.54,34.53,1009.94,44.53,1009.94,56.34z"/>
				<path class="st0" d="M1191.68,56.34c0,12.42,13.33,22.72,29.98,31.5c23.93,11.51,55.73,30.59,55.13,70.88
					c0,16.05-6.06,29.98-18.17,41.8c-12.11,11.81-26.65,17.57-43.92,17.57c-17.87,0-32.71-5.75-44.52-17.26
					c-11.81-11.81-17.57-26.05-17.57-42.71v-9.08h35.74v9.08c0,16.05,12.42,25.44,25.44,25.44c15.75,0,25.44-10.6,25.44-22.72
					c0-15.75-13.02-27.26-29.68-35.74c-23.93-11.81-55.13-27.56-54.52-66.03c0-16.66,5.76-30.89,17.26-42.1
					C1184.11,5.76,1198.04,0,1214.7,0c18.48,0,33.02,6.36,43.31,18.78c10.3,12.42,15.45,26.96,15.45,43.31h-36.35
					c0-16.05-8.78-27.56-22.41-27.56C1202.28,34.53,1191.68,44.53,1191.68,56.34z"/>
				<path class="st0" d="M1367.37,3.03h57.55l34.53,119.34v92.68h-35.74v-63h-55.12v63h-35.74v-92.68L1367.37,3.03z M1420.37,116.61
					l-21.2-78.14h-6.06l-21.2,78.14H1420.37z"/>
				<path class="st0" d="M1518.52,3.03h63.91c14.84,0,27.26,4.85,37.25,14.54c10,9.39,15.14,21.2,15.14,35.13v17.57
					c0,12.12-5.76,24.23-10.3,29.08l-3.64,3.94c1.21,0.91,2.73,2.12,4.24,3.94c1.82,1.51,4.24,5.45,6.97,11.81
					c3.03,6.36,4.55,13.02,4.55,20.29v22.72c0,15.45-5.45,28.17-16.36,38.16c-10.91,9.99-23.93,14.84-38.77,14.84h-63V3.03z
					 M1555.17,38.47v47.86h27.56c8.78,0,16.05-6.66,16.05-14.84V53.31c0-8.18-7.27-14.84-16.05-14.84H1555.17z M1555.17,121.76
					v57.85h26.35c9.99,0,18.17-7.88,18.17-17.57v-22.41c0-7.57-6.96-17.87-18.17-17.87H1555.17z"/>
				<path class="st0" d="M1705.11,3.03h36.34v176.58h81.48v35.44h-117.82V3.03z"/>
				<path class="st0" d="M1886.86,3.03h108.13v35.44h-72.09v48.46h65.72v35.13h-65.72v57.55h74.21v35.44h-110.25V3.03z"/>
			</g>
		</g>
		
			<rect x="118.58" y="27.21" transform="matrix(0.695 -0.719 0.719 0.695 16.8345 129.5874)" class="st0" width="85.14" height="35.49"/>
	</g>
	<g>
		<g>
			<path class="st0" d="M6.7,331.14c-1.52-1.54-4-1.55-5.54-0.03c-1.54,1.52-1.55,4-0.03,5.54l55.24,55.74
				c0.77,0.77,1.78,1.16,2.78,1.16c1,0,1.99-0.38,2.76-1.13c1.54-1.52,1.55-4,0.03-5.54L6.7,331.14z"/>
			<path class="st0" d="M131.48,331.14c-1.52-1.54-4-1.55-5.54-0.03c-1.54,1.52-1.55,4-0.03,5.54l55.24,55.74
				c0.77,0.77,1.78,1.16,2.78,1.16c1,0,1.99-0.38,2.76-1.13c1.54-1.52,1.55-4,0.03-5.54L131.48,331.14z"/>
			<path class="st0" d="M256.25,331.14c-1.52-1.54-4-1.55-5.54-0.03c-1.54,1.52-1.55,4-0.03,5.54l55.24,55.74
				c0.77,0.77,1.78,1.16,2.78,1.16c1,0,1.99-0.38,2.76-1.13c1.54-1.52,1.55-4,0.03-5.54L256.25,331.14z"/>
			<path class="st0" d="M430.7,392.4c0.77,0.77,1.78,1.16,2.78,1.16c1,0,1.99-0.38,2.76-1.13c1.54-1.52,1.55-4,0.03-5.54
				l-55.24-55.74c-1.52-1.54-4-1.55-5.54-0.03c-1.54,1.52-1.55,4-0.03,5.54L430.7,392.4z"/>
			<path class="st0" d="M6.7,456.05c-1.52-1.54-4-1.55-5.54-0.03c-1.54,1.52-1.55,4-0.03,5.54l55.24,55.74
				c0.77,0.77,1.78,1.16,2.78,1.16c1,0,1.99-0.38,2.76-1.13c1.54-1.52,1.55-4,0.03-5.54L6.7,456.05z"/>
			<path class="st0" d="M131.48,456.05c-1.52-1.54-4-1.55-5.54-0.03c-1.54,1.52-1.55,4-0.03,5.54l55.24,55.74
				c0.77,0.77,1.78,1.16,2.78,1.16c1,0,1.99-0.38,2.76-1.13c1.54-1.52,1.55-4,0.03-5.54L131.48,456.05z"/>
			<path class="st0" d="M256.25,456.05c-1.52-1.54-4-1.55-5.54-0.03c-1.54,1.52-1.55,4-0.03,5.54l55.24,55.74
				c0.77,0.77,1.78,1.16,2.78,1.16c1,0,1.99-0.38,2.76-1.13c1.54-1.52,1.55-4,0.03-5.54L256.25,456.05z"/>
			<path class="st0" d="M381.03,456.05c-1.52-1.54-4-1.55-5.54-0.03c-1.54,1.52-1.55,4-0.03,5.54l55.24,55.74
				c0.77,0.77,1.78,1.16,2.78,1.16c1,0,1.99-0.38,2.76-1.13c1.54-1.52,1.55-4,0.03-5.54L381.03,456.05z"/>
			<path class="st0" d="M6.7,580.96c-1.52-1.53-4-1.55-5.54-0.03c-1.54,1.52-1.55,4-0.03,5.54l55.24,55.74
				c0.77,0.77,1.78,1.16,2.78,1.16c1,0,1.99-0.38,2.76-1.13c1.54-1.52,1.55-4,0.03-5.54L6.7,580.96z"/>
			<path class="st0" d="M131.48,580.96c-1.52-1.53-4-1.55-5.54-0.03c-1.54,1.52-1.55,4-0.03,5.54l55.24,55.74
				c0.77,0.77,1.78,1.16,2.78,1.16c1,0,1.99-0.38,2.76-1.13c1.54-1.52,1.55-4,0.03-5.54L131.48,580.96z"/>
			<path class="st0" d="M256.25,580.96c-1.52-1.53-4-1.55-5.54-0.03c-1.54,1.52-1.55,4-0.03,5.54l55.24,55.74
				c0.77,0.77,1.78,1.16,2.78,1.16c1,0,1.99-0.38,2.76-1.13c1.54-1.52,1.55-4,0.03-5.54L256.25,580.96z"/>
			<path class="st0" d="M381.03,580.96c-1.52-1.53-4-1.55-5.54-0.03c-1.54,1.52-1.55,4-0.03,5.54l55.24,55.74
				c0.77,0.77,1.78,1.16,2.78,1.16c1,0,1.99-0.38,2.76-1.13c1.54-1.52,1.55-4,0.03-5.54L381.03,580.96z"/>
			<path class="st0" d="M6.7,705.87c-1.52-1.54-4-1.55-5.54-0.03c-1.54,1.52-1.55,4-0.03,5.54l55.24,55.74
				c0.77,0.77,1.78,1.16,2.78,1.16c1,0,1.99-0.38,2.76-1.14c1.54-1.52,1.55-4,0.03-5.54L6.7,705.87z"/>
			<path class="st0" d="M131.48,705.87c-1.52-1.54-4-1.55-5.54-0.03c-1.54,1.52-1.55,4-0.03,5.54l55.24,55.74
				c0.77,0.77,1.78,1.16,2.78,1.16c1,0,1.99-0.38,2.76-1.14c1.54-1.52,1.55-4,0.03-5.54L131.48,705.87z"/>
			<path class="st0" d="M256.25,705.87c-1.52-1.54-4-1.55-5.54-0.03c-1.54,1.52-1.55,4-0.03,5.54l55.24,55.74
				c0.77,0.77,1.78,1.16,2.78,1.16c1,0,1.99-0.38,2.76-1.14c1.54-1.52,1.55-4,0.03-5.54L256.25,705.87z"/>
			<path class="st0" d="M381.03,705.87c-1.52-1.54-4-1.55-5.54-0.03c-1.54,1.52-1.55,4-0.03,5.54l55.24,55.74
				c0.77,0.77,1.78,1.16,2.78,1.16c1,0,1.99-0.38,2.76-1.14c1.54-1.52,1.55-4,0.03-5.54L381.03,705.87z"/>
		</g>
		<g>
			<path class="st0" d="M629.27,415.54c-3.85-4.62-7.87-9.21-11.76-13.64c-2.1-2.39-4.2-4.79-6.28-7.19l-9.1-10.52v-50.3
				c0-2.16-1.75-3.92-3.92-3.92h-40.14c-2.16,0-3.92,1.75-3.92,3.92v50.3l-9.09,10.52c-2.08,2.41-4.18,4.8-6.28,7.19
				c-3.89,4.43-7.91,9.02-11.76,13.64c-7.43,8.92-11.01,21.39-10.94,38.13c0.04,9.21,0.03,18.42,0.01,27.62l-0.01,287.48
				c0,2.16,1.75,3.92,3.92,3.92h116.29c2.16,0,3.92-1.76,3.92-3.92L640.2,481.3c-0.01-9.21-0.03-18.42,0.01-27.62
				C640.28,436.94,636.7,424.47,629.27,415.54z M632.37,764.86H523.92l0.01-283.55c0.01-9.22,0.03-18.45-0.01-27.67
				c-0.06-14.81,2.92-25.63,9.12-33.08c3.78-4.54,7.77-9.09,11.63-13.48c2.11-2.41,4.23-4.82,6.32-7.24l10.05-11.62
				c0.61-0.71,0.95-1.62,0.95-2.56v-47.84h32.3v47.84c0,0.94,0.34,1.85,0.95,2.56l10.05,11.62c2.09,2.42,4.21,4.83,6.32,7.24
				c3.86,4.39,7.85,8.94,11.63,13.48c6.2,7.45,9.18,18.27,9.12,33.08c-0.04,9.22-0.03,18.45-0.01,27.67L632.37,764.86z"/>
			<path class="st0" d="M958.81,453.67c0.07-16.74-3.51-29.21-10.94-38.13c-3.86-4.64-7.9-9.24-11.8-13.68
				c-2.09-2.38-4.17-4.76-6.24-7.15l-9.1-10.52v-50.3c0-2.16-1.75-3.92-3.92-3.92h-40.14c-2.16,0-3.92,1.75-3.92,3.92v50.3
				l-9.09,10.52c-2.08,2.41-4.18,4.8-6.28,7.19c-3.89,4.43-7.91,9.02-11.76,13.64c-7.43,8.92-11.01,21.39-10.94,38.13
				c0.04,9.21,0.03,18.42,0.01,27.62l-0.01,287.48c0,2.16,1.75,3.92,3.92,3.92h116.29c2.16,0,3.92-1.76,3.92-3.92L958.8,481.3
				C958.78,472.09,958.77,462.88,958.81,453.67z M950.97,764.86H842.52l0.01-283.55c0.01-9.22,0.03-18.45-0.01-27.67
				c-0.06-14.81,2.92-25.64,9.12-33.08c3.78-4.54,7.77-9.09,11.63-13.48c2.11-2.41,4.23-4.82,6.32-7.24l10.05-11.62
				c0.62-0.71,0.95-1.62,0.95-2.56v-47.84h32.3v47.84c0,0.94,0.34,1.85,0.95,2.56l10.05,11.62c2.08,2.4,4.18,4.8,6.28,7.19
				c3.87,4.41,7.87,8.97,11.67,13.53c6.2,7.45,9.18,18.27,9.12,33.08c-0.04,9.22-0.03,18.44-0.01,27.67L950.97,764.86z"/>
			<path class="st0" d="M788.57,415.54c-3.85-4.62-7.87-9.21-11.76-13.64c-2.1-2.39-4.2-4.79-6.28-7.19l-9.1-10.52v-50.3
				c0-2.16-1.75-3.92-3.92-3.92h-40.14c-2.16,0-3.92,1.75-3.92,3.92v50.3l-9.09,10.52c-2.07,2.39-4.16,4.77-6.24,7.15
				c-3.9,4.45-7.94,9.05-11.8,13.68c-7.43,8.92-11.01,21.39-10.94,38.13c0.04,9.21,0.03,18.42,0.01,27.63l-0.01,287.48
				c0,2.16,1.75,3.92,3.92,3.92h116.29c2.16,0,3.92-1.76,3.92-3.92L799.5,481.3c-0.01-9.21-0.03-18.42,0.01-27.62
				C799.58,436.94,796,424.46,788.57,415.54z M791.67,764.86H683.22l0.01-283.55c0.01-9.22,0.03-18.45-0.01-27.67
				c-0.06-14.81,2.92-25.64,9.12-33.08c3.8-4.56,7.8-9.12,11.67-13.53c2.1-2.39,4.2-4.79,6.28-7.19l10.05-11.62
				c0.62-0.71,0.95-1.62,0.95-2.56v-47.84h32.3v47.84c0,0.94,0.34,1.85,0.95,2.56l10.05,11.62c2.09,2.42,4.21,4.83,6.32,7.24
				c3.86,4.39,7.85,8.94,11.63,13.48c6.2,7.45,9.18,18.27,9.12,33.08c-0.04,9.22-0.03,18.45-0.01,27.67L791.67,764.86z"/>
		</g>
		<path class="st0" d="M1996.08,764.52h-217.47V548.88c117.07-2.18,215.24-101.57,215.24-219.06c0-2.16-1.76-3.92-3.92-3.92H1553.8
			c-1.05,0-2.05,0.42-2.79,1.16c-0.74,0.75-1.14,1.76-1.13,2.8c0.77,59.12,24.58,114.36,67.06,155.55
			c41.34,40.08,95.85,62.5,153.84,63.47v215.62h-216.13c-2.16,0-3.92,1.76-3.92,3.92c0,2.16,1.76,3.92,3.92,3.92h441.43
			c2.16,0,3.92-1.76,3.92-3.92C2000,766.27,1998.25,764.52,1996.08,764.52z M1557.8,333.75h428.17
			c-2.17,112.83-98.04,207.4-211.28,207.4c-57.41,0-111.5-21.79-152.3-61.35C1582.38,441,1559.53,389.27,1557.8,333.75z"/>
		<path class="st0" d="M1477.25,768.07c0.2-0.48,0.3-0.99,0.3-1.5V451.51c0-2.16-1.76-3.92-3.92-3.92c-2.16,0-3.92,1.75-3.92,3.92
			v305.6l-421.51-421.51h305.6c2.16,0,3.92-1.75,3.92-3.92s-1.75-3.92-3.92-3.92h-315.05c-0.51,0-1.03,0.1-1.51,0.3
			c-0.96,0.4-1.72,1.16-2.12,2.12c-0.2,0.48-0.3,0.99-0.3,1.5v315.06c0,2.16,1.75,3.92,3.92,3.92s3.92-1.75,3.92-3.92v-305.6
			l421.51,421.51h-305.6c-2.16,0-3.92,1.76-3.92,3.92c0,2.16,1.75,3.92,3.92,3.92h315.06c0.51,0,1.02-0.1,1.5-0.3
			C1476.09,769.79,1476.86,769.03,1477.25,768.07z"/>
	</g>
	<g>
		<path class="st0" d="M1.19,902.97h15v62.3h33.63v12.5H1.19V902.97z"/>
		<path class="st0" d="M76.2,902.97h44.63v12.5H91.08v17.1h27.13v12.4H91.08v20.3h30.63v12.5H76.2V902.97z"/>
		<path class="st0" d="M259.99,977.78l-12-25.43h-8v25.43h-15v-74.8h26.38c6.13,0,11.13,1.71,15.13,5.13c4,3.42,6,7.69,6,12.93
			v13.36c0,6.09-3.75,11.97-9.75,15.28l13.75,28.1H259.99z M257.24,920.5c0-2.67-2.75-5.02-6.13-5.02h-11.13v24.36h11.13
			c3.38,0,6.13-2.35,6.13-5.02V920.5z"/>
		<path class="st0" d="M301.25,902.97h44.63v12.5h-29.75v17.1h27.13v12.4h-27.13v20.3h30.63v12.5h-45.51V902.97z M326.88,897.1
			H312.5l14.88-16.56h19.25L326.88,897.1z"/>
		<path class="st0" d="M376.27,902.97h44.63v12.5h-29.75v17.1h27.13v12.4h-27.13v20.3h30.63v12.5h-45.51V902.97z"/>
		<path class="st0" d="M485.41,902.97h17.63v74.8h-14.38v-44.45l0.88-10.79l-0.75-0.21l-9.13,20.09h-11.88l-9-20.09l-0.75,0.21
			l0.88,10.79v44.45h-14.38v-74.8h17.63l11.38,25.54h0.5L485.41,902.97z"/>
		<path class="st0" d="M542.05,953.52v24.26h-14.88v-74.8h26.13c5.88,0,10.75,1.71,14.88,5.24c4.13,3.53,6.25,7.8,6.25,12.82v14.32
			c0,5.13-2,9.4-6.13,12.93c-4.13,3.53-9.13,5.24-15,5.24H542.05z M559.3,920.5c0-2.88-2.75-5.02-6.25-5.02h-11v25.65h11
			c3.5,0,6.25-2.24,6.25-4.92V920.5z"/>
		<path class="st0" d="M601.32,902.97h15v62.3h33.63v12.5h-48.63V902.97z"/>
		<path class="st0" d="M724.71,957.9c0,5.77-2.5,10.69-7.5,14.85c-4.88,4.06-11,6.09-18.38,6.09s-13.5-2.03-18.5-6.2
			s-7.5-9.08-7.5-14.85v-34.94c0-5.77,2.5-10.69,7.5-14.75c5-4.17,11.13-6.2,18.5-6.2s13.5,2.03,18.38,6.2
			c5,4.06,7.5,8.98,7.5,14.75V957.9z M709.84,922.21c0-4.38-5-8.23-11-8.23c-6,0-11,3.85-11,8.23v36.23c0,4.38,5,8.33,11,8.33
			c6,0,11-3.85,11-8.23V922.21z"/>
		<path class="st0" d="M749.22,914.94v-11.97h49.13v11.97h-16.88v50.87h16.88v11.97h-49.13v-11.97h17v-50.87H749.22z"/>
		<path class="st0" d="M950.38,954.48v3.21c0,5.88-2.5,10.79-7.5,14.96s-11,6.2-18.13,6.2s-13.13-2.03-18.13-6.2
			s-7.5-9.08-7.5-14.85v-34.94c0-5.67,2.5-10.58,7.5-14.75c5.13-4.17,11.13-6.2,18-6.2c18.63,0,25.13,12.61,25.13,21.8h-15
			c0-5.13-3.63-9.62-10-9.62c-6,0-10.25,3.74-10.25,8.44v35.58c0,5.24,4.38,8.55,10.25,8.55c5.63,0,10.88-3.31,10.88-8.98v-3.21
			H950.38z"/>
		<path class="st0" d="M989.27,927.02l4.63-24.15h14.63l-9.38,24.15H989.27z"/>
		<path class="st0" d="M1051.41,902.97h44.63v12.5h-29.75v17.1h27.13v12.4h-27.13v20.3h30.63v12.5h-45.51V902.97z"/>
		<path class="st0" d="M1139.55,921.78c0,4.38,5.5,8.01,12.38,11.11c9.88,4.06,23,10.79,22.75,25.01c0,5.66-2.5,10.58-7.5,14.75
			s-11,6.2-18.13,6.2c-7.38,0-13.5-2.03-18.38-6.09c-4.88-4.17-7.25-9.19-7.25-15.07v-3.21h14.75v3.21c0,5.67,5.13,8.98,10.5,8.98
			c6.5,0,10.5-3.74,10.5-8.02c0-5.56-5.38-9.62-12.25-12.61c-9.88-4.17-22.75-9.72-22.5-23.3c0-5.88,2.38-10.9,7.13-14.85
			c4.88-3.95,10.63-5.98,17.5-5.98c7.63,0,13.63,2.24,17.88,6.63s6.38,9.51,6.38,15.28h-15c0-5.66-3.63-9.72-9.25-9.72
			C1143.93,914.09,1139.55,917.61,1139.55,921.78z"/>
		<path class="st0" d="M1198.07,915.48v-12.5h51.63v12.5h-18.25v62.3h-15.25v-62.3H1198.07z"/>
		<path class="st0" d="M1349.47,977.78v-74.8h24.88c6.75,0,12.5,2.03,17.25,6.09c4.75,4.06,7.13,8.98,7.13,14.75v33.13
			c0,5.77-2.38,10.69-7.13,14.75c-4.75,4.06-10.5,6.09-17.25,6.09H1349.47z M1383.23,923.38c0-4.38-4.13-7.91-9.25-7.91h-9.5v49.8
			h9.5c5.13,0,9.25-3.42,9.25-7.8V923.38z"/>
		<path class="st0" d="M1474.87,902.97v54.93c0,5.77-2.5,10.69-7.5,14.85c-4.88,4.06-11,6.09-18.38,6.09c-7.38,0-13.5-2.03-18.5-6.2
			s-7.5-9.08-7.5-14.85v-54.82h14.88v55.46c0,4.38,5.13,8.33,11.13,8.33c6,0,11-3.85,11-8.23v-55.57H1474.87z"/>
		<path class="st0" d="M1589.65,921.78c0,4.38,5.5,8.01,12.38,11.11c9.88,4.06,23,10.79,22.75,25.01c0,5.66-2.5,10.58-7.5,14.75
			c-5,4.17-11,6.2-18.13,6.2c-7.38,0-13.5-2.03-18.38-6.09c-4.88-4.17-7.25-9.19-7.25-15.07v-3.21h14.75v3.21
			c0,5.67,5.13,8.98,10.5,8.98c6.5,0,10.5-3.74,10.5-8.02c0-5.56-5.38-9.62-12.25-12.61c-9.88-4.17-22.75-9.72-22.5-23.3
			c0-5.88,2.38-10.9,7.13-14.85c4.88-3.95,10.63-5.98,17.5-5.98c7.63,0,13.63,2.24,17.88,6.63s6.38,9.51,6.38,15.28h-15
			c0-5.66-3.63-9.72-9.25-9.72C1594.02,914.09,1589.65,917.61,1589.65,921.78z"/>
		<path class="st0" d="M1699.92,957.9c0,5.77-2.5,10.69-7.5,14.85c-4.88,4.06-11,6.09-18.38,6.09s-13.5-2.03-18.5-6.2
			s-7.5-9.08-7.5-14.85v-34.94c0-5.77,2.5-10.69,7.5-14.75c5-4.17,11.13-6.2,18.5-6.2s13.5,2.03,18.38,6.2
			c5,4.06,7.5,8.98,7.5,14.75V957.9z M1685.04,922.21c0-4.38-5-8.23-11-8.23c-6,0-11,3.85-11,8.23v36.23c0,4.38,5,8.33,11,8.33
			c6,0,11-3.85,11-8.23V922.21z"/>
		<path class="st0" d="M1726.55,902.97h15v62.3h33.63v12.5h-48.63V902.97z"/>
		<path class="st0" d="M1799.44,914.94v-11.97h49.13v11.97h-16.88v50.87h16.88v11.97h-49.13v-11.97h17v-50.87H1799.44z"/>
		<path class="st0" d="M1874.58,977.78v-74.8h24.88c6.75,0,12.5,2.03,17.25,6.09s7.13,8.98,7.13,14.75v33.13
			c0,5.77-2.38,10.69-7.13,14.75s-10.5,6.09-17.25,6.09H1874.58z M1908.34,923.38c0-4.38-4.13-7.91-9.25-7.91h-9.5v49.8h9.5
			c5.13,0,9.25-3.42,9.25-7.8V923.38z"/>
		<path class="st0" d="M1951.6,902.97h44.63v12.5h-29.75v17.1h27.13v12.4h-27.13v20.3h30.63v12.5h-45.51V902.97z"/>
	</g>
</g>
<g>
</g>
<g>
</g>
<g>
</g>
<g>
</g>
<g>
</g>
<g>
</g>
<g>
</g>
<g>
</g>
<g>
</g>
<g>
</g>
<g>
</g>
<g>
</g>
<g>
</g>
<g>
</g>
<g>
</g>
</svg>
